<?xml version="1.0" encoding="utf-8"?>
<!-- Generator: Adobe Illustrator 25.4.1, SVG Export Plug-In . SVG Version: 6.00 Build 0)  -->
<svg version="1.1" id="Capa_1" xmlns="http://www.w3.org/2000/svg" xmlns:xlink="http://www.w3.org/1999/xlink" x="0px" y="0px"
	 viewBox="0 0 700 343.8" style="enable-background:new 0 0 700 343.8;" xml:space="preserve">
<style type="text/css">
	.st0{fill:#29176E;}
	.st1{fill:#DE7B13;}
</style>
<path class="st0" d="M119.8,120.3l-1.7-2.8v-2.8L117,113l-1.7-1.7l-2.2-1.1l-4.5,1.7l-2.8-0.6l-2.8-1.1l-2.2-0.6l-3.4,1.7l-3.9,3.9
	l-3.4,4.5l-0.6,3.9l1.1,1.7l1.7,1.1l1.7,1.7l0.6,2.2l0.6,2.8l4.5,6.7l1.1,5l1.1,2.2l1.7,1.1l1.1,1.1l1.1,9l0.6,1.1l1.7,2.2l0.6,1.1
	h0.6l1.1-2.8l3.4-4.5l2.2-5l2.8-5l0.6-2.2v-2.8l-1.1-5v-2.8l0.6-2.2l3.4-3.9l0.6-2.2l-1.1-1.7L119.8,120.3z M101.9,245.2l-2.2-1.1
	l-2.2-0.6l-3.9,2.8l-2.2,1.1l-0.6,0.6v1.7l-5.6,5.6l-1.7,1.1l-5-1.1l-5-0.6l-3.4,1.7l0.6,4.5l1.7,1.7l2.2,1.1l9,1.1l1.7,1.1l1.1,1.7
	l1.7,1.7l2.8,1.7h1.7l1.1-1.7l0.6-3.4l0.6-1.1l1.1-1.1l1.1-0.6l0.6-0.6V262l2.2-2.2v-1.7l5-7.3l0.6-2.2l-0.6-1.7L101.9,245.2z
	 M187.6,200.4l-6.7-2.8l-4.5,0.6l-6.2,5.6l-0.6,7.8l4.5,7.3l7.3,5l1.1-1.7h1.1l1.1,0.6h1.7l1.7-0.6l1.7-1.1l5-3.9l1.7-2.2l1.1-2.2
	l0.6-2.8l-2.8-4.5L187.6,200.4z M400.4,225l0.6-2.2l-0.6-0.6l-1.7-1.1l-1.1-0.6l-1.1-1.7l-0.6-1.7v-1.7l-0.6-1.1l-0.6-5V206l1.1-1.7
	l1.1-0.6v-1.1l-0.6-1.7h-0.6l-3.4,0.6l0.6,4.5l-2.8,1.1l-7.3-1.7h-9l-6.2-2.2l-1.7,0.6l-2.2-1.1h-2.2l0.6,1.7v2.8l-0.6,2.2l-1.1,1.1
	l0.6,3.4l-2.2,3.4l-2.8,2.8l-2.2,1.7l-4.5,2.8l-1.1,1.1l-0.6,1.7v4.5l0.6,1.7l-0.6,2.8l0.6,2.8l3.4,7.8l1.7,1.7l2.2,1.7l0.6,1.1
	l1.1,1.1l6.2,5.6l1.7,0.6l2.2,0.6l5,0.6l1.1,0.6l1.1,1.1l1.1,0.6l1.7-0.6l3.4-3.4h0.6l1.1-0.6l8.4-2.8l1.7-1.7l3.9-4.5l1.7-1.1
	l2.2-1.1V244l-0.6-2.2l-1.1-1.7l1.1-2.8l1.1-1.1l1.1-0.6v-1.1l-1.7-2.2l0.6-2.2L400.4,225z M580.7,128.7l-3.4-3.9l-3.9-1.1l-4.5,0.6
	l-4.5,1.7l-2.2,1.1l-1.1,1.1l-0.6,1.7l-0.6,5l-1.7,3.9l-1.1,6.7l-4.5,6.7l-2.8,6.7l-3.4,5.6l-1.7,1.1l-0.6,1.7l-2.8,9.5l-2.8,3.9
	l-1.1,2.2l-0.6,6.7l-0.6,2.8l-1.1,2.2l-1.7,2.2l-3.4,3.4l-8.4,5.6l-6.7,2.8l-4.5,1.7h-2.2l-3.9-0.6h-1.1v0.6l-1.1,3.4l-0.6,0.6
	l1.7,0.6l7.8-0.6l2.2,0.6l4.5,2.2h2.8l5-2.2l3.4-3.9l3.4-4.5l3.9-3.9l2.2-1.1l4.5-1.1l3.9-2.8l5.6-1.7l12.3-2.2l3.9-2.2l2.8-4.5
	l1.1-4.5l1.1-2.2l2.2-2.8l0.6-1.1V174l0.6-0.6l2.2-1.7l0.6-1.1v-1.1l-1.1-1.7l-0.6-1.1v-6.2l0.6-1.7l2.2-5l0.6-2.8l1.1-11.2
	l-0.6-6.2L580.7,128.7z M626.6,59.2l-2.2-1.1l-2.2,0.6l-1.7,2.2l-1.1,2.2l-1.1,4.5l-1.7,3.4l-1.1,1.7l-1.7,0.6h-7.8l-2.2,0.6
	l-2.2,1.7l-3.9,3.4l-2.2,0.6h-2.8l-2.2,0.6l-3.4,2.2l-2.2,2.2l-3.9,6.2l-0.6,1.7l-0.6,6.7l-0.6,2.2l-1.1,2.2l-1.1,1.1l-1.1,0.6
	l-0.6,0.6l1.1,3.4l1.1,0.6h5.6l2.2,0.6l1.1,1.7h0.6l2.2-3.9l2.2-3.4l3.4-2.2l3.9-1.1h1.7l2.8-0.6h1.7l1.7-0.6l2.2-2.2l5.6-1.1
	l3.9-2.2l3.4-2.8l1.7-3.4v-4.5l0.6-1.1L625,81v-3.4l-1.1-3.4l0.6-2.2l2.2-1.7l1.1-1.7l0.6-2.2l1.1-2.8L626.6,59.2z M309.1,146.6
	l-7.3,2.8l-11.8-0.6l-1.7-0.6l-0.6,2.2l-2.2,1.1l-2.8,0.6l-2.2,1.1l-1.1,0.6l-2.2,1.1l-0.6,0.6v1.7l-0.6,1.1l-2.2,2.2l-6.7,7.8
	L266,169l-2.8-1.1l-1.1,0.6l-2.2,2.2l-1.1,0.6l-1.7,0.6l-7.8-0.6l-2.2,0.6l-2.2,1.1l-2.2,0.6l-5,0.6l-3.4,1.1h-1.7l-1.1-0.6
	l-2.8-1.1l-1.1-0.6l-7.8,2.8l-1.7,1.1v2.2l3.9,3.9l1.7,3.4l1.7,2.8l0.6,1.1l0.6,5.6l1.1,1.7l1.7,1.7l1.7,2.2l0.6,2.8l1.1,2.2
	l4.5,4.5l1.7,2.2v3.4l0.6,1.1l1.1,1.1l2.2,1.1l0.6,2.2l1.1,2.8l2.2,0.6l2.8-0.6l6.7-2.8l2.2-0.6h2.8l2.2-0.6l1.7-1.7l6.2-9.5
	l1.7-2.2l2.2-1.1l0.6-1.7l2.2-9.5l3.9-7.3l0.6-2.2l1.7-1.7v-0.6l-0.6-0.6v-0.6l-0.6-2.8V178l0.6-1.7l1.1-1.1l3.9-2.8l5-5l5-5.6
	l10.1-5l3.9-3.4l-0.6-5L309.1,146.6z M621,58.1l1.7-3.4l-1.1-2.2l-2.8-0.6l-1.1,2.2l-1.1,2.8l-1.7,1.7v1.1l2.8,0.6L621,58.1z"/>
<circle class="st1" cx="252.5" cy="176.5" r="3.1"/>
<circle class="st1" cx="246.3" cy="217.1" r="3.1"/>
<circle class="st1" cx="255.6" cy="210.7" r="3.1"/>
<circle class="st1" cx="112.6" cy="117.3" r="3.1"/>
<circle class="st1" cx="103.2" cy="134.2" r="3.1"/>
<circle class="st1" cx="399" cy="238.3" r="3.1"/>
<circle class="st1" cx="385.9" cy="230" r="3.1"/>
<circle class="st1" cx="392.1" cy="241.4" r="3.1"/>
<circle class="st1" cx="574" cy="155.8" r="3.1"/>
<circle class="st1" cx="583" cy="104.7" r="3.1"/>
</svg>
